<?xml version="1.0" encoding="utf-8"?>
<!-- Generator: Adobe Illustrator 16.0.0, SVG Export Plug-In . SVG Version: 6.00 Build 0)  -->
<!DOCTYPE svg PUBLIC "-//W3C//DTD SVG 1.1//EN" "http://www.w3.org/Graphics/SVG/1.1/DTD/svg11.dtd">
<svg version="1.1" id="Layer_1" xmlns="http://www.w3.org/2000/svg" xmlns:xlink="http://www.w3.org/1999/xlink" x="0px" y="0px"
	 width="512px" height="512px" viewBox="0 0 512 512" enable-background="new 0 0 512 512" xml:space="preserve">
<g>
	<g>
		<g>
			<path fill="#F6851F" d="M290.2,444.8c-0.7-0.9-1.1-1.8-1.2-2.7c-6.2,0.5-12.4,1-18.7,1.2c-4.7,0.1-9.3,0.2-14,0.3
				c1.1,9,10.7,14.4,19.8,12.6C279.6,455.4,294.1,449.6,290.2,444.8z"/>
		</g>
	</g>
	<g>
		<g>
			<path fill="#F6851F" d="M383.8,412.5c-22.8,7-46.9,8.9-70.7,10.2c-31.3,1.7-62.6,0.7-94,1.8c-23.1,0.8-46.2,2.7-69.3,1
				c-8.4-0.6-24.4-1.5-33-8.1c0.1,0.8,0.3,1.5,0.5,2.2c3,10.5,14.2,13.3,23.9,15c14.1,2.6,27.9,3.9,42.3,2.7
				c15.6-1.2,31.1-3.7,46.7-4.3c16.3-0.6,32.6-0.3,48.9-1.3c8.2-0.5,16.4-1.7,24.6-2.2c7.5-0.4,15-0.5,22.5-0.7
				c14.9-0.3,29-1.8,43.5-5.2c10.1-2.3,23.4-4.5,30.9-12.3c1.2-1.3,3.8-4,5.9-7C398,408.7,387.3,411.4,383.8,412.5z"/>
		</g>
	</g>
	<g>
		<g>
			<path fill="#F6851F" d="M235.1,58.5c10,0.4,20,0.9,29.9,0.1C260,49.6,241.3,50,235.1,58.5z"/>
		</g>
	</g>
	<g>
		<g>
			<path fill="#F6851F" d="M287.6,102.5c-2.4-9.3-2.4-18.8-2.2-28.3c0.1-2,0.1-4,0-6c-0.1-0.8-0.5-2.1-0.4-2.3
				c-1.3,0.2-8.8,2.4-10,2.6c-16.2,2.7-32.8,0.9-49.2,0.8c-0.2,0.4-0.5,0.8-0.9,1.1c-0.7,0.7-0.9,3.7-0.9,5.9
				c0.2,4.1,0.7,8.3,1.3,12.4c0.6,4.2,1.6,8.5,2.2,12.7c1,0.8,1.7,2,1.7,3.7c12.9-0.7,26.1,0.2,39,0.1c4.3,0,8.7-0.1,13-0.4
				c2.1-0.2,4.1-0.3,6.2-0.7c0.3,0,0.5-0.1,0.7-0.1C287.9,103.6,287.7,103.1,287.6,102.5z"/>
		</g>
	</g>
	<g>
		<g>
			<path fill="#FEBF10" d="M407.5,387.1c-0.1-0.1-0.3-0.2-0.4-0.3c-6.9-6.4-15.7-10.4-21.6-18.1c-4-5.3-6.2-10.8-7.6-16.6
				c-5.1,6-14.6,9.6-21.4,12.8c-2.7,1.3-6.1-0.8-7-3.4c-1.1-3.1,0.7-5.7,3.4-7c3.8-1.9,7.8-3.3,11.4-5.5c1.8-1.1,6.9-3.8,6.2-6.5
				c-1-3.9,2-6.7,5-7.2c0-0.5-0.1-1.1-0.1-1.6c-2.7-30.8-6.6-61.7-11.1-92.3c-4-27.3-7.5-56.4-19.1-81.7
				c-5.2-11.3-12.2-21.8-21.1-30.6c-8-7.9-18-15.9-29.9-15c-0.4,0-0.8,0-1.2,0c-6.2,2.7-15.7,1.9-21,2c-14.6,0.2-29.3-0.9-43.8,0
				c-0.3,0-0.6,0-0.8,0c-0.1,0-0.1,0-0.2,0c-8.1-0.1-16.2,1-23.6,4.4c-19.2,8.8-30.1,29.2-36.4,48.4c-9.1,27.7-13.5,56.9-15.7,85.9
				c-1.2,15.7-1.8,31.5-2,47.3c-0.2,15,0.3,30.1-0.4,45.1c0,0.2,0,0.4,0,0.6c0.5,0.2,0.9,0.4,1.3,0.7c13.5,9.3,30.7,10.8,46.4,13.7
				c7,1.3,4.9,12.1-2.1,10.8c-16.2-3-32.6-5.2-47-13.4c-3.1,17.7-11.2,34.1-25.8,45.1c0.1,0.5,0.2,1,0.3,1.5c0,0.8-0.1,0.9,0.7,1.6
				c1.2,1,2.5,1.7,3.9,2.3c3.7,1.5,7.6,2.4,11.5,3c19.4,3.2,39.5,2.1,59.1,1.2c31.3-1.4,62.7-0.8,94-1.8c15.8-0.5,31.6-1.3,47.3-3
				c11.5-1.2,23.4-2.2,34.4-5.4c7.5-2.2,14.9-4.4,22.2-7.2c3.5-1.3,7-2.6,10.2-4.5c0.3-0.2,1-0.7,1.6-1.1c-0.1-0.5-0.1-1.1,0-1.6
				C407,388.9,407.2,388,407.5,387.1z M249.6,372.9c-9.8,4.4-21,2.4-31.4,2.3c-7-0.1-7.9-11-0.8-11c9.3,0.1,19.8,2.3,28.6-1.7
				C252.4,359.6,256,370,249.6,372.9z M315.7,367.1c-10.3-0.7-20.4,2.9-30.1,5.8c-6.8,2-10.4-8.3-3.6-10.4c11.8-3.6,23.4-7,35.9-6.2
				C324.9,356.8,322.7,367.6,315.7,367.1z"/>
		</g>
	</g>
	<g>
		<g>
			<path d="M416.4,384.6c-0.2-0.1-0.3-0.3-0.5-0.4c0.6-1.8,0.3-3.9-1.5-5.6c-6.8-6.3-15.8-10-21.1-17.9c-7.8-11.7-6.9-27.5-8.4-41.1
				c-3.7-32.1-7.1-64.3-12.3-96.2c-4.4-27-9.3-54.6-22.9-78.7c-10.2-18.2-29.7-40.8-52.3-41.5c0.7-1.2,1-2.6,0.5-4.2
				c-2.6-9.9-1.3-20.2-1.6-30.4c-0.2-10-6.4-15-16.2-12.5c-1.3,0.3-2.6,0.6-4,0.9c-7.6-21.3-48.1-21.2-53.4,1.4
				c-1.7,0.4-2.7,1.6-3.2,3.1c-1.1,0.2-2.1,0.7-3.1,1.6c-5.3,5.1-3.7,15.2-2.9,21.7c0.8,7,2.6,14,3.3,21
				c-18.4,2.4-34.1,12.6-45,28.3c-13.6,19.6-19.7,43.7-24.4,66.7c-6.3,30.5-8.2,61.8-9,92.9c-0.4,15.5-0.4,31.1-0.4,46.6
				c0,12.3-1.6,24.5-6.8,35.8c-2.7,6-6.6,11.3-11.3,16c-3.6,3.5-9.4,5.6-11.3,10.1c-5.2,7.2-3.6,19.4,0.3,26.7
				c5.3,9.7,16,13.6,26.2,16c13,3,26.3,4.5,39.6,4.2c15.7-0.3,31.2-3,46.8-4.3c7.8-0.6,15.7-0.8,23.5-1
				c0.5,15.7,17.5,26.3,32.5,23.3c10.5-2.1,29.9-13.2,23.2-25.8c5.6-0.4,11.2-0.8,16.8-0.9c15.1-0.3,30.4-0.2,45.2-3.6
				c12.6-2.9,25.6-5.1,37.1-11.2C411.5,419.4,431.2,396.2,416.4,384.6z M265.1,58.5c-9.9,0.8-20,0.3-29.9-0.1
				C241.3,50,260,49.6,265.1,58.5z M224.9,70.3c0.4-0.4,0.7-0.8,0.9-1.1c16.4,0.1,32.9,1.9,49.2-0.8c1.2-0.2,8.7-2.4,10-2.6
				c-0.1,0.3,0.3,1.6,0.4,2.3c0.2,2,0.1,4,0,6c-0.3,9.5-0.2,19,2.2,28.3c0.1,0.6,0.4,1.1,0.6,1.5c-0.2,0-0.5,0.1-0.7,0.1
				c-2,0.4-4.1,0.5-6.2,0.7c-4.3,0.3-8.7,0.4-13,0.4c-13,0.1-26.1-0.8-39-0.1c0-1.7-0.7-3-1.7-3.7c-0.6-4.3-1.5-8.5-2.2-12.7
				c-0.6-4.1-1.1-8.2-1.3-12.4C223.9,74,224.2,71,224.9,70.3z M276.1,456.1c-9.1,1.8-18.7-3.6-19.8-12.6c4.7-0.1,9.4-0.1,14-0.3
				c6.2-0.2,12.5-0.7,18.7-1.2c0.1,0.9,0.4,1.8,1.2,2.7C294.1,449.6,279.6,455.4,276.1,456.1z M400.7,411.5
				c-7.5,7.8-20.8,10-30.9,12.3c-14.5,3.4-28.6,4.8-43.5,5.2c-7.5,0.2-15,0.3-22.5,0.7c-8.2,0.4-16.4,1.7-24.6,2.2
				c-16.3,1-32.6,0.7-48.9,1.3c-15.7,0.6-31.1,3.1-46.7,4.3c-14.4,1.1-28.2-0.2-42.3-2.7c-9.6-1.8-20.9-4.5-23.9-15
				c-0.2-0.7-0.4-1.4-0.5-2.2c8.5,6.6,24.6,7.5,33,8.1c23.1,1.7,46.2-0.2,69.3-1c31.3-1.1,62.6-0.1,94-1.8
				c23.7-1.3,47.8-3.2,70.7-10.2c3.5-1.1,14.2-3.8,22.9-8C404.5,407.5,401.9,410.2,400.7,411.5z M407.2,389.8c-0.1,0.5-0.1,1,0,1.6
				c-0.6,0.4-1.2,0.9-1.6,1.1c-3.2,1.9-6.7,3.2-10.2,4.5c-7.3,2.8-14.7,5-22.2,7.2c-11.1,3.3-23,4.2-34.4,5.4
				c-15.7,1.7-31.5,2.5-47.3,3c-31.4,1-62.7,0.4-94,1.8c-19.6,0.9-39.7,2-59.1-1.2c-3.9-0.6-7.9-1.5-11.5-3
				c-1.4-0.6-2.7-1.3-3.9-2.3c-0.8-0.7-0.7-0.8-0.7-1.6c0-0.6-0.1-1.1-0.3-1.5c14.5-11,22.7-27.3,25.8-45.1
				c14.4,8.2,30.8,10.4,47,13.4c7,1.3,9.1-9.5,2.1-10.8c-15.7-2.9-32.9-4.4-46.4-13.7c-0.4-0.3-0.9-0.5-1.3-0.7c0-0.2,0-0.4,0-0.6
				c0.7-15,0.1-30.1,0.4-45.1c0.2-15.8,0.8-31.6,2-47.3c2.2-29,6.6-58.2,15.7-85.9c6.3-19.2,17.2-39.6,36.4-48.4
				c7.4-3.4,15.5-4.5,23.6-4.4c0.1,0,0.1,0,0.2,0c0.3,0,0.5,0,0.8,0c14.5-1,29.3,0.2,43.8,0c5.3-0.1,14.8,0.7,21-2
				c0.4,0,0.8,0.1,1.2,0c11.9-1,21.9,7.1,29.9,15c8.9,8.8,15.9,19.2,21.1,30.6c11.6,25.3,15.2,54.5,19.1,81.7
				c4.5,30.6,8.4,61.5,11.1,92.3c0,0.5,0.1,1.1,0.1,1.6c-3,0.5-5.9,3.4-5,7.2c0.7,2.7-4.5,5.4-6.2,6.5c-3.6,2.2-7.6,3.6-11.4,5.5
				c-2.7,1.3-4.5,3.9-3.4,7c0.9,2.6,4.3,4.7,7,3.4c6.7-3.3,16.3-6.8,21.4-12.8c1.4,5.8,3.7,11.4,7.6,16.6
				c5.8,7.7,14.7,11.7,21.6,18.1c0.1,0.1,0.2,0.2,0.4,0.3C407.2,388,407,388.9,407.2,389.8z"/>
		</g>
	</g>
	<g>
		<g>
			<path d="M245.9,362.5c-8.8,4-19.3,1.8-28.6,1.7c-7.1-0.1-6.2,10.9,0.8,11c10.4,0.1,21.6,2.1,31.4-2.3
				C256,370,252.4,359.6,245.9,362.5z"/>
		</g>
	</g>
	<g>
		<g>
			<path d="M317.8,356.3c-12.4-0.8-24.1,2.7-35.9,6.2c-6.8,2-3.1,12.4,3.6,10.4c9.7-2.9,19.8-6.5,30.1-5.8
				C322.7,367.6,324.9,356.8,317.8,356.3z"/>
		</g>
	</g>
	<g>
		<g>
			<path d="M411.4,225.9c-0.8-11.6-0.1-23.1-1.8-34.7c-2.7-17.6-9.8-37.6-26.4-46.4c-6.3-3.3-11.1,6.5-4.9,9.9
				c13.6,7.2,18.5,25.3,20.6,39.4c1.5,9.9,1.2,19.9,1.4,29.9c0,2.9,0.4,5.8,0.5,8.7c0.1,1.6,0.7,6.4-0.2,7.5
				c-4.4,5.5,3.8,12.8,8.3,7.3C413.5,241.6,411.9,232.6,411.4,225.9z"/>
		</g>
	</g>
	<g>
		<g>
			<path d="M450.2,187.1c-2-12.2-6.6-23.4-12.6-34.2c-2.9-5.3-6.3-10.5-10.2-15.1c-3.7-4.4-8.3-8.1-11.1-13.3
				c-3.4-6.2-12.5,0-9.1,6.2c2.5,4.5,6.3,8.2,9.8,11.9c3.8,4,6.8,8.7,9.7,13.5c6,9.7,10.5,20.6,12.4,31.8
				c4.1,22.9,2.8,47.3-3.8,69.7c-2,6.8,8.8,8.8,10.8,2.1C453.1,236.4,454.1,211.1,450.2,187.1z"/>
		</g>
	</g>
	<g>
		<g>
			<path d="M490.9,185.9c-5.8-36.4-20.2-79.2-53.7-99.1c-6.1-3.6-10.9,6.3-4.9,9.9c28.8,17.2,41.3,55.4,47,86.5
				c3.8,20.4,6.1,41.4,2.9,62c-0.9,5.9-1.9,11.8-3,17.7c-0.6,3.1-1.3,6.1-2.2,9.1c-0.3,1.1-0.8,2.2-1.2,3.3
				c-0.1,0.3-0.2,0.5-0.3,0.6c-4.7,2.5-3.4,11.1,2.9,10.3c6.3-0.8,8.2-7.8,9.7-13.1c2-7,3.2-14.3,4.3-21.5
				C495.8,229.4,494.4,208,490.9,185.9z"/>
		</g>
	</g>
	<g>
		<g>
			<path d="M139.2,154.8c-12.2-7.9-19.1,26.1-20.5,32.2c-2.2,9.5-3.5,19.4-4.1,29.2c-0.6,9.4,0.3,18.5,0.7,27.9
				c0.2,7.1,11.2,6.2,11-0.8c-0.2-6.3-1-12.6-1-18.9c0-6.3,0.6-12.5,1.4-18.7c0.4-3,0.9-5.9,1.5-8.8c0.9-4.6-0.1,0.7,0.1-1.1
				c0.1-0.5,0.1-1,0.2-1.5c1-6.2,2.8-12.3,4.7-18.3c0.9-2.8,1.9-5.6,3.2-8.3c0.3-0.7,0.7-1.4,1.1-2.1
				C141.6,165.1,144,157.9,139.2,154.8z"/>
		</g>
	</g>
	<g>
		<g>
			<path d="M104.6,134.1c-12.3,14.6-16.1,35.2-18.8,53.6c-3.1,21.4-3.6,42.9-3.6,64.5c0,0,0,0,0,0v1.5c0,7.1,11,6.2,11-0.8
				c0-20.2,0.4-40.4,3.1-60.5c2.2-17.1,5.2-37.3,16.6-51C117.4,135.9,109.2,128.6,104.6,134.1z"/>
		</g>
	</g>
	<g>
		<g>
			<path d="M104.3,82.2C89.6,85,78.6,99.2,70,110.4c-11.6,15-19.3,32-24.9,50c-6.5,20.9-9.6,43.2-12.2,64.9c-1.1,9-1.6,18-2.2,27
				c-0.4,7.3-0.2,15.1,5.4,20.5c5.1,4.9,12.4-3.4,7.3-8.3c-3.5-3.4-1.8-11.8-1.4-16.1c0.8-9,1.3-17.9,2.4-26.8
				c2.5-19.3,5.6-38.8,11-57.5c4.6-15.8,11.5-31.3,21.4-44.5c4.2-5.7,8.8-11.2,13.8-16.3c3.8-3.9,9-9.1,14.7-10.2
				C112.1,91.9,111.3,80.9,104.3,82.2z"/>
		</g>
	</g>
</g>
</svg>
