<svg id="Capa_1" enable-background="new 0 0 510.17 510.17" height="512" viewBox="0 0 510.17 510.17" width="512" xmlns="http://www.w3.org/2000/svg"><path d="m484.329 172.23c-2.85-3.45-7.09-5.45-11.57-5.45h-111.16c-15.894 19.51-3.888 4.764-61.76 75.86-5.992 7.358-17.26 7.381-23.27 0-58.842-72.287-46.013-56.53-61.76-75.86h-92.48l-12.47-70.4c-1.27-7.16-7.49-12.38-14.77-12.38h-57.68c-8.28 0-15 6.72-15 15s6.72 15 15 15h45.11c13.97 78.879 3.047 20.685 43.5 230.39v.01 53.42c9.747-2.07 20.007-2.141 30-.01v-39.85h285.65c7.19 0 13.37-5.1 14.73-12.16l31.09-161.18c.85-4.39-.31-8.94-3.16-12.39z"/><path d="m211.439 453.2c2.062 9.599 2.152 19.984 0 30h105.14c-2.105-9.889-2.087-20.24.01-30z"/><path d="m141.059 426.24c-23.128 0-41.96 18.829-41.96 41.96 0 23.14 18.82 41.97 41.96 41.97 23.258 0 41.96-18.958 41.96-41.97 0-23.124-18.824-41.96-41.96-41.96z"/><ellipse cx="386.969" cy="468.21" rx="41.96" ry="41.96" transform="matrix(.987 -.16 .16 .987 -70.002 68.031)"/><path d="m288.199 209.41 75.3-92.494c2.659-3.267.335-8.157-3.878-8.157h-18.342c-8.28 0-15-6.71-15-15v-88.759c0-2.761-2.239-5-5-5h-66.15c-2.761 0-5 2.239-5 5v88.76c0 8.29-6.72 15-15 15h-18.352c-4.212 0-6.537 4.89-3.878 8.157z"/></svg>